# xmcd
#
# Track frame offsets:
#	150
#	1769
#	10003
#	23234
#	27922
#	49409
#	67791
#	76504
#	87856
#	110338
#	122591
#	131061
#	138160
#	144411
#	160817
#	209472
#
# Disc length: 4131 seconds
#
# Revision: 2
# Processed by: cddbd v1.4PL0 Copyright (c) Steve Scherf et al.
# Submitted via: EasyCDDAExtractor 5.0.6
#
DISCID=bf102110
DTITLE=los cholos lokos - recopilacion romantica
DYEAR=2003
DGENRE=Acoustic
TTITLE0=intro
TTITLE1=mariwanos
TTITLE2=primer tonto
TTITLE3=[interlude]
TTITLE4=esclavo y amo
TTITLE5=reloj
TTITLE6=el
TTITLE7=siempre soñe
TTITLE8=quien
TTITLE9=pagina blanca
TTITLE10=frijolero
TTITLE11=la negra putasa
TTITLE12=[interlude]
TTITLE13=comprendes mendez
TTITLE14=outro
TTITLE15=datatrack
EXTD=
EXTT0=
EXTT1=
EXTT2=
EXTT3=
EXTT4=
EXTT5=
EXTT6=
EXTT7=
EXTT8=
EXTT9=
EXTT10=
EXTT11=
EXTT12=
EXTT13=
EXTT14=
EXTT15=
PLAYORDER=
